<?xml version="1.0" standalone="no"?>
<!DOCTYPE svg PUBLIC "-//W3C//DTD SVG 1.1//EN" "http://www.w3.org/Graphics/SVG/1.1/DTD/svg11.dtd" >
<svg xmlns="http://www.w3.org/2000/svg" xmlns:xlink="http://www.w3.org/1999/xlink" version="1.1">
<metadata></metadata>
<defs>
<font id="gt_america_monoregular" horiz-adv-x="1269" >
<font-face units-per-em="2048" ascent="1638" descent="-410" />
<missing-glyph horiz-adv-x="500" />
<glyph unicode="&#xfb01;" horiz-adv-x="2539" d="M186 883v141h314v113q0 176 97 265t288 89q78 0 178 -21v-153q-10 2 -61.5 9t-116.5 7q-117 0 -164 -46t-47 -163v-100h389v-141h-389v-883h-174v883h-314zM1526 0v143h328v738h-297v143h471v-881h346v-143h-848zM1800 1229v246h246v-246h-246z" />
<glyph unicode="&#xfb02;" horiz-adv-x="2539" d="M186 883v141h314v113q0 176 97 265t288 89q78 0 178 -21v-153q-10 2 -61.5 9t-116.5 7q-117 0 -164 -46t-47 -163v-100h389v-141h-389v-883h-174v883h-314zM1526 0v143h328v1198h-308v144h482v-1342h346v-143h-848z" />
<glyph horiz-adv-x="0" />
<glyph horiz-adv-x="0" />
<glyph unicode="&#xd;" horiz-adv-x="0" />
<glyph unicode=" " />
<glyph unicode="!" d="M498 0v262h272v-262h-272zM530 1454h207l-32 -1073h-142z" />
<glyph unicode="&#x22;" d="M344 1454h236l-58 -580h-121zM690 1454h236l-58 -580h-121z" />
<glyph unicode="#" d="M92 418v141h227l58 305h-203v142h229l76 409h166l-76 -409h219l76 409h166l-76 -409h203v-142h-229l-58 -305h217v-141h-243l-78 -418h-166l78 418h-219l-78 -418h-166l78 418h-201zM485 559h220l57 305h-219z" />
<glyph unicode="$" d="M125 414l184 37q25 -135 96.5 -224.5t198.5 -105.5v524l-69 17q-168 43 -265.5 146t-97.5 263q0 102 53.5 187t151.5 137.5t227 58.5v184h92v-186q184 -12 300 -110.5t134 -290.5l-182 -54q-12 145 -79.5 218t-172.5 88v-502l70 -19q174 -43 275.5 -131t101.5 -272 q0 -105 -47 -195t-147.5 -149.5t-252.5 -65.5v-188h-92v190q-217 16 -334.5 137t-144.5 306zM346 1075q0 -92 67.5 -157.5t180.5 -92.5l10 -2v484q-137 -8 -197.5 -76t-60.5 -156zM696 117q119 8 196 61t77 174q0 123 -69 179.5t-185 84.5l-19 5v-504z" />
<glyph unicode="%" d="M49 1124q0 152 75 242t198 90q121 0 196.5 -92t75.5 -246q0 -152 -75 -242t-195 -90q-125 0 -200 90.5t-75 247.5zM147 -29l805 1524h148l-807 -1524h-146zM186 1124q0 -104 36 -160.5t102 -56.5q59 0 94 55.5t35 155.5q0 102 -35 159.5t-96 57.5q-63 0 -99.5 -56 t-36.5 -155zM676 338q0 152 74.5 242t197.5 90q121 0 197 -92.5t76 -245.5q0 -152 -75 -242t-196 -90q-125 0 -199.5 90t-74.5 248zM813 338q0 -104 36 -160.5t101 -56.5q60 0 94.5 55t34.5 156q0 102 -34.5 159.5t-96.5 57.5q-63 0 -99 -56.5t-36 -154.5z" />
<glyph unicode="&#x26;" d="M72 367q0 285 297 436q-76 96 -121 181t-45 190q0 94 46 165.5t126 110.5t176 39q139 0 237.5 -78t98.5 -223q0 -125 -76 -222.5t-211 -179.5l-6 -4l328 -395q59 152 65 399l152 -22q-10 -299 -117 -500l16 -20q61 -84 150 -84q20 0 45 4v-162q-45 -8 -72 -8 q-137 0 -223 104l-20 25q-154 -158 -404 -158q-215 0 -328.5 110.5t-113.5 291.5zM246 383q0 -137 80 -202.5t215 -65.5q182 -1 288 118l-374 463q-113 -74 -161 -143.5t-48 -169.5zM369 1184q0 -70 34.5 -137.5t110.5 -163.5q109 78 158 144.5t49 150.5q0 86 -47 131 t-127 45t-129 -44t-49 -126z" />
<glyph unicode="'" d="M516 1454h236l-58 -580h-121z" />
<glyph unicode="(" d="M430 657q0 287 137.5 541t380.5 404l103 -99q-223 -174 -329 -376.5t-106 -469.5q0 -266 105.5 -468.5t329.5 -376.5l-103 -99q-243 150 -380.5 404t-137.5 540z" />
<glyph unicode=")" d="M219 -188q223 174 328.5 376.5t105.5 468.5t-105.5 469t-328.5 377l103 99q244 -150 381 -404t137 -541t-137.5 -540.5t-380.5 -403.5z" />
<glyph unicode="*" d="M207 1073l72 195l288 -152l-55 338h225l-51 -338l305 158l72 -201l-334 -72l244 -249l-168 -115l-174 313l-172 -319l-176 121l235 260z" />
<glyph unicode="+" d="M154 600v150h393v389h174v-389h395v-150h-395v-414h-174v414h-393z" />
<glyph unicode="," d="M498 0v262h272v-262q0 -121 -45 -188.5t-162 -114.5l-53 94q84 37 110.5 79t26.5 130h-149z" />
<glyph unicode="-" d="M338 487v164h592v-164h-592z" />
<glyph unicode="." d="M498 0v262h272v-262h-272z" />
<glyph unicode="/" d="M264 -240l578 1796h162l-578 -1796h-162z" />
<glyph unicode="0" d="M115 711q2 743 520 743t520 -743q-2 -741 -520 -742q-518 0 -520 742zM295 711q0 -180 31 -301l563 751q-80 139 -254 139q-164 0 -251 -134t-89 -455zM371 281q82 -158 264 -158q164 0 251 135t89 453q0 197 -35 325z" />
<glyph unicode="1" d="M190 0v166h398v964q-88 -106 -309 -106h-70v166h59q147 0 231.5 63.5t116.5 169.5h146v-1257h350v-166h-922z" />
<glyph unicode="2" d="M158 0v152q248 182 483 407q135 131 188.5 233.5t53.5 229.5q0 131 -69 201.5t-191 70.5q-123 0 -195 -69.5t-72 -186.5q0 -49 17 -131l-185 19q-14 57 -14 114q0 190 123 302t336 112q209 0 325.5 -111.5t116.5 -318.5q0 -150 -76.5 -287t-242.5 -291 q-164 -152 -350 -280h686v-166h-934z" />
<glyph unicode="3" d="M137 406l180 22q6 -139 90.5 -222t233.5 -83q145 0 225 73.5t80 206.5q0 117 -81 189t-230 72h-88v151h82q133 0 200.5 69.5t67.5 180.5t-67.5 173t-194.5 62q-141 0 -220 -87t-79 -242l-172 37q0 205 131 325.5t350 120.5q205 0 320.5 -105.5t115.5 -283.5 q0 -106 -67.5 -191.5t-177.5 -113.5q139 -25 216.5 -119t77.5 -238q0 -129 -60 -227t-173 -152.5t-262 -54.5q-150 0 -260.5 55.5t-172 155t-65.5 226.5z" />
<glyph unicode="4" d="M96 360v125l623 938h199v-919h233v-144h-233v-360h-175v360h-647zM276 504h467v522q0 102 5 207h-3q-18 -49 -38.5 -87t-67.5 -110l-266 -399q-10 -14 -38 -57t-59 -76z" />
<glyph unicode="5" d="M158 348l190 23q23 -111 96.5 -177.5t192.5 -66.5q141 0 220 89t79 247q0 164 -76 259t-219 95q-111 0 -182.5 -61.5t-102.5 -175.5l-176 18l84 825h787v-159h-648l-53 -484q51 94 136 142.5t200 48.5q203 0 318.5 -133t115.5 -365q0 -150 -60.5 -263.5t-173 -177 t-259.5 -63.5q-189 0 -315 102.5t-154 276.5z" />
<glyph unicode="6" d="M139 680q0 373 137.5 573.5t393.5 200.5q178 0 289.5 -90t144.5 -262l-184 -41q-47 240 -252 239q-168 0 -255 -140t-94 -415q49 96 144.5 150.5t216.5 54.5q133 0 232.5 -60.5t153.5 -170t54 -254.5q0 -147 -59.5 -259t-166 -174.5t-243.5 -62.5q-254 0 -383 180.5 t-129 530.5zM326 508q16 -176 103 -280.5t224 -104.5q129 0 206 92t77 248q0 154 -78 244t-213 90q-117 0 -200 -74t-119 -215z" />
<glyph unicode="7" d="M170 1253v170h942v-143q-248 -276 -376 -599t-128 -646v-35h-202v20q0 612 497 1233h-733z" />
<glyph unicode="8" d="M145 369q0 293 277 379q-117 55 -170 137t-53 202q0 109 55 192t154.5 129t228.5 46q199 0 316.5 -98.5t117.5 -263.5q0 -121 -58.5 -204t-170.5 -122q149 -57 215.5 -149.5t66.5 -235.5q0 -123 -59 -216t-169 -144.5t-255 -51.5q-147 0 -260 49.5t-174.5 140.5 t-61.5 210zM332 395q0 -125 85 -201.5t224 -76.5q141 0 220 69.5t79 194.5q0 98 -55.5 162.5t-175.5 105.5l-131 41q-133 -47 -189.5 -115.5t-56.5 -179.5zM383 1087q0 -92 52 -150t169 -97l70 -21q117 47 165 106.5t48 157.5q0 109 -67.5 170.5t-188.5 61.5 q-115 0 -181.5 -60.5t-66.5 -167.5z" />
<glyph unicode="9" d="M141 987q0 133 58.5 239.5t165 167t245.5 60.5q516 0 516 -715q0 -350 -122.5 -560t-382.5 -210q-195 0 -311.5 96.5t-151.5 276.5l184 41q23 -125 89.5 -192.5t191.5 -67.5q164 0 239.5 153.5t79.5 436.5q-53 -90 -141 -136.5t-203 -46.5q-131 0 -234.5 52.5t-163 156 t-59.5 248.5zM326 989q0 -141 80.5 -223t209.5 -82q115 0 206 77t116 191q-18 150 -95 249t-235 99q-127 0 -204.5 -86t-77.5 -225z" />
<glyph unicode=":" d="M498 0v262h272v-262h-272zM498 762v262h272v-262h-272z" />
<glyph unicode=";" d="M498 0v262h272v-262q0 -121 -45 -188.5t-162 -114.5l-53 94q84 37 110.5 79t26.5 130h-149zM498 762v262h272v-262h-272z" />
<glyph unicode="&#x3c;" d="M158 594v147l952 420v-162l-760 -329l760 -330v-166z" />
<glyph unicode="=" d="M154 397v164h962v-164h-962zM154 786v164h962v-164h-962z" />
<glyph unicode="&#x3e;" d="M158 174v166l760 330l-760 329v162l952 -420v-147z" />
<glyph unicode="?" d="M180 1075q0 188 122 301t337 113q209 0 328.5 -100.5t119.5 -282.5q0 -100 -52 -184t-140 -172l-102 -105q-45 -45 -64.5 -99t-19.5 -128v-37h-174v88q0 63 22.5 122.5t93.5 133.5l101 102q68 68 104.5 129.5t36.5 149.5q0 102 -71.5 165.5t-182.5 63.5 q-127 0 -200.5 -70.5t-73.5 -209.5q0 -63 10 -109l-187 23q-8 53 -8 106zM496 0v262h272v-262h-272z" />
<glyph unicode="@" d="M117 373v379q0 178 66.5 314t188.5 211t281 75q152 0 265.5 -67.5t175 -192.5t61.5 -291v-260q0 -166 -53 -251t-158 -85q-63 0 -105 31.5t-53 85.5q-33 -55 -90 -87t-123 -32q-96 0 -157.5 59.5t-61.5 153.5q0 86 56.5 140t162.5 73l201 35v14q0 88 -29.5 127t-97.5 39 q-70 0 -105.5 -36t-35.5 -106h-131q0 121 75.5 192t204.5 71q127 0 187.5 -77t60.5 -239v-213q0 -63 14.5 -92t45.5 -29q70 0 69 170v299q0 215 -102.5 335t-284.5 120q-188 0 -295.5 -126t-107.5 -349v-399q0 -131 54 -231.5t154.5 -156t231.5 -55.5q127 0 256 60l43 -99 q-139 -76 -305 -76q-260 0 -409.5 152t-149.5 414zM489 418q0 -47 33 -75t88 -28q72 0 118 51.5t46 131.5v65l-162 -35q-123 -25 -123 -110z" />
<glyph unicode="A" d="M59 0l467 1454h217l467 -1454h-188l-135 420h-506l-133 -420h-189zM432 584h404q-137 428 -199 702h-4q-58 -251 -201 -702z" />
<glyph unicode="B" d="M184 0v1454h465q254 0 363.5 -114.5t109.5 -272.5q0 -109 -62.5 -192.5t-180.5 -118.5q133 -23 208.5 -116t75.5 -241q0 -102 -45 -192t-150.5 -148.5t-275.5 -58.5h-508zM375 158h305q154 0 221.5 72.5t67.5 187.5q0 111 -66.5 178.5t-202.5 67.5h-325v-506zM375 819 h272q281 0 281 234q0 243 -279 243h-2h-272v-477z" />
<glyph unicode="C" d="M111 674v106q0 336 138 522.5t396 186.5q457 0 512 -512l-190 -31q-12 182 -94 280.5t-230 98.5q-172 0 -254 -130t-82 -404v-105q0 -276 85 -416.5t251 -140.5q150 0 230.5 98.5t93.5 282.5l188 -39q-25 -229 -156 -367.5t-370 -138.5q-256 0 -387 185.5t-131 523.5z " />
<glyph unicode="D" d="M156 0v1454h426q195 0 335 -92t211.5 -257t71.5 -376q0 -209 -76.5 -375t-217 -260t-328.5 -94h-422zM346 160h229q133 0 229.5 77.5t148 207.5t51.5 284q0 158 -48.5 287t-143.5 203.5t-232 74.5h-234v-1134z" />
<glyph unicode="E" d="M215 0v1454h850v-164h-659v-465h624v-159h-624v-502h673v-164h-864z" />
<glyph unicode="F" d="M236 0v1454h890v-164h-700v-465h645v-163h-645v-662h-190z" />
<glyph unicode="G" d="M111 662v143q0 322 138 503t390 181q240 0 343 -134t128 -306l-186 -27q-14 119 -83 211t-208 92q-160 0 -242 -125t-82 -428v-80q0 -561 324 -561q121 0 191.5 66.5t99 155.5t28.5 167v86h-364v154h538v-760h-131l-28 213q-100 -248 -363 -248q-237 0 -365 191.5 t-128 505.5z" />
<glyph unicode="H" d="M166 0v1454h190v-631h557v631h191v-1454h-191v664h-557v-664h-190z" />
<glyph unicode="I" d="M176 0v154h363v1146h-363v154h918v-154h-365v-1146h365v-154h-918z" />
<glyph unicode="J" d="M111 469l188 63q0 -180 77 -291.5t222 -111.5q150 0 213 94t63 260v971h191v-1014q0 -213 -124 -344t-351 -131q-162 0 -270.5 74t-158.5 189.5t-50 240.5z" />
<glyph unicode="K" d="M172 0v1454h190v-717l549 717h224l-443 -573l490 -881h-221l-402 745l-197 -241v-504h-190z" />
<glyph unicode="L" d="M236 0v1454h190v-1290h696v-164h-886z" />
<glyph unicode="M" d="M166 0v1454h276l164 -760l23 -129h12l23 129l163 760h277v-1454h-180v903q0 205 4 389h-13q-8 -76 -28.5 -192.5t-36.5 -181.5l-127 -570h-176l-127 570q-16 66 -37 182.5t-29 191.5h-12q4 -184 4 -389v-903h-180z" />
<glyph unicode="N" d="M166 0v1454h250l428 -989q51 -121 69 -191h5q-4 49 -5 156v1024h191v-1454h-223l-457 1047q-23 49 -41 102t-25 70h-6q4 -39 4 -125v-1094h-190z" />
<glyph unicode="O" d="M104 662v131q0 330 134.5 513t396.5 183t396 -183.5t134 -512.5v-131q0 -330 -134 -513.5t-396 -183.5t-396.5 183.5t-134.5 513.5zM303 662q0 -274 81 -403.5t251 -129.5t251 129t81 404v131q0 274 -81 403t-251 129t-251 -129t-81 -403v-131z" />
<glyph unicode="P" d="M225 0v1454h475q266 0 375 -127t109 -303q0 -109 -48.5 -206t-164 -160.5t-305.5 -63.5h-250v-594h-191zM416 750h254q176 0 244.5 79.5t68.5 192.5t-64.5 192.5t-228.5 79.5h-274v-544z" />
<glyph unicode="Q" d="M104 662v131q0 330 134.5 513t396.5 183t396 -183.5t134 -512.5v-131q0 -252 -78.5 -420t-232.5 -236q49 -63 100.5 -81.5t110.5 -18.5q41 0 94 14v-174q-90 -12 -129 -12q-115 0 -201 63.5t-129 171.5q-41 -4 -65 -4q-262 0 -396.5 183.5t-134.5 513.5zM303 662 q0 -274 81 -403.5t251 -129.5t251 129t81 404v131q0 274 -81 403t-251 129t-251 -129t-81 -403v-131z" />
<glyph unicode="R" d="M174 0v1454h467q236 0 364 -110.5t128 -313.5q0 -147 -82 -249.5t-228 -141.5l355 -639h-211l-336 608h-266v-608h-191zM365 760h268q145 0 222 68.5t77 197.5q0 131 -77 199.5t-222 68.5h-268v-534z" />
<glyph unicode="S" d="M113 418l184 37q27 -145 113 -237.5t239 -92.5q123 0 210 53t87 178q0 129 -62.5 183.5t-172.5 85.5l-195 51q-166 45 -262 144.5t-96 258.5q0 109 57 203t162.5 150.5t243.5 56.5q215 0 352 -98.5t157 -309.5l-182 -53q-12 160 -101 230.5t-220 70.5q-145 0 -210 -68.5 t-65 -164.5q0 -92 62.5 -154.5t160.5 -91.5l187 -49q176 -47 277.5 -137.5t101.5 -280.5q0 -109 -52.5 -204t-163 -154.5t-274.5 -59.5q-245 0 -377.5 127t-160.5 326z" />
<glyph unicode="T" d="M80 1290v164h1106v-164h-457v-1290h-192v1290h-457z" />
<glyph unicode="U" d="M139 485v969h191v-969q0 -166 79.5 -261t231.5 -95q154 0 226.5 94t72.5 262v969h190v-969q0 -238 -121.5 -379t-367.5 -141t-374 142.5t-128 377.5z" />
<glyph unicode="V" d="M80 1454h199l325 -1173l27 -113h8l27 113l321 1173h203l-438 -1454h-236z" />
<glyph unicode="W" d="M94 1454h191l49 -1032q8 -154 8 -260h20q4 102 41 274l142 660h180l141 -660q37 -172 41 -274h21q0 106 8 260l49 1032h191l-111 -1454h-250l-131 625q-33 158 -39 290h-20q-6 -133 -39 -290l-131 -625h-250z" />
<glyph unicode="X" d="M66 0l456 768l-405 686h215l241 -453q27 -51 39.5 -80.5t16.5 -64.5h8q4 35 15.5 63.5t37.5 77.5l238 457h217l-400 -702l459 -752h-227l-291 528q-31 55 -40 83t-13 55h-8q-4 -29 -14.5 -56.5t-43.5 -87.5l-284 -522h-217z" />
<glyph unicode="Y" d="M68 1454h211l356 -717l356 717h211l-471 -874v-580h-190v580z" />
<glyph unicode="Z" d="M139 0v176l762 1114h-735v164h936v-176l-764 -1114h792v-164h-991z" />
<glyph unicode="[" d="M410 -233v1783h579v-143h-424v-1497h424v-143h-579z" />
<glyph unicode="\" d="M264 1556h162l578 -1796h-162z" />
<glyph unicode="]" d="M281 -90h424v1497h-424v143h579v-1783h-579v143z" />
<glyph unicode="^" d="M266 918l303 536h129l303 -536h-159l-207 348l-209 -348h-160z" />
<glyph unicode="_" d="M0 -242h1270v-143h-1270v143z" />
<glyph unicode="`" d="M439 1475h217l176 -293h-154z" />
<glyph unicode="a" d="M168 276q0 160 143 242q98 53 348 84l187 23v18q0 137 -52.5 199.5t-166.5 62.5q-109 0 -171.5 -53t-68.5 -150h-186q14 164 128.5 255.5t309.5 91.5q199 0 291 -102.5t92 -323.5v-277q0 -240 35 -346h-183q-12 92 -16 186q-51 -109 -136 -160t-210 -51q-152 0 -248 84 t-96 217zM352 287q0 -78 51.5 -123t141.5 -45q139 0 221 89t82 238v52l-244 -33q-133 -18 -192.5 -60.5t-59.5 -117.5z" />
<glyph unicode="b" d="M229 0v1485h174v-639q43 90 128 146.5t188 56.5q129 0 224 -69t146.5 -189.5t51.5 -276.5q0 -160 -52.5 -281.5t-148.5 -189.5t-227 -68q-104 0 -191.5 54.5t-128.5 146.5l-31 -176h-133zM399 483q0 -161 73 -257.5t200 -96.5q133 0 208.5 104.5t75.5 280.5 q0 174 -73.5 277.5t-206.5 103.5q-129 0 -203 -96.5t-74 -261.5v-54z" />
<glyph unicode="c" d="M164 518q0 240 122 385.5t355 145.5q174 0 285.5 -96.5t130.5 -270.5l-178 -20q-14 115 -78 175t-172 60q-137 0 -211 -101.5t-74 -275.5q0 -180 75 -285.5t216 -105.5q215 0 254 246l166 -27q-27 -166 -132.5 -269.5t-287.5 -103.5q-152 0 -257.5 71t-159.5 193.5 t-54 278.5z" />
<glyph unicode="d" d="M119 514q0 160 55 280.5t157.5 187.5t235.5 67q100 0 174 -48.5t115 -128.5v613h174v-1485h-164v190q-49 -104 -126.5 -159.5t-198.5 -55.5q-127 0 -222.5 67t-147.5 188.5t-52 283.5zM303 514q0 -178 74 -281.5t201 -103.5q131 0 206.5 97.5t75.5 262.5v48 q0 163 -74.5 260.5t-201.5 97.5q-133 0 -207 -100.5t-74 -280.5z" />
<glyph unicode="e" d="M164 532q0 156 57.5 273t162.5 180.5t247 63.5q223 0 328.5 -139.5t105.5 -364.5q0 -25 -4 -78h-719q0 -147 81 -242.5t220 -95.5q176 0 270 182l148 -78q-131 -258 -418 -258q-236 0 -357.5 149.5t-121.5 407.5zM342 610h543v15q1 121 -63 202q-68 86 -199 86 q-88 0 -151.5 -43t-96.5 -112.5t-33 -147.5z" />
<glyph unicode="f" d="M186 883v141h314v113q0 176 97 265t288 89q78 0 178 -21v-153q-10 2 -61.5 9t-116.5 7q-117 0 -164 -46t-47 -163v-100h389v-141h-389v-883h-174v883h-314z" />
<glyph unicode="g" d="M162 -164q0 82 48 141.5t130 88.5q-129 53 -129 182q0 70 38 121t109 77q-102 92 -102 248q0 104 48 184t134 125.5t199 45.5q111 0 197 -45q29 92 91 140t156 48q41 0 66 -8v-152q-61 8 -76 8q-57 0 -93 -23.5t-58 -74.5q92 -92 92 -237q0 -156 -106.5 -253.5 t-278.5 -97.5q-109 0 -191 41q-71 -35 -71 -100q0 -51 42 -78t128 -27h264q160 0 247 -73.5t87 -204.5q0 -160 -133.5 -248t-372.5 -88q-217 0 -341 69.5t-124 190.5zM334 -115q0 -166 311 -166q162 0 237.5 44t75.5 131q0 70 -50 106.5t-148 36.5h-232q-33 0 -86 4 q-51 -23 -79.5 -63.5t-28.5 -92.5zM420 698q0 -94 58.5 -152.5t150.5 -58.5q94 0 156.5 61.5t62.5 156.5q0 92 -59.5 151t-153.5 59t-154.5 -60t-60.5 -157z" />
<glyph unicode="h" d="M211 0v1485h174v-647q35 94 124 152.5t198 58.5q68 0 135 -21.5t116 -69.5q51 -49 76 -126.5t25 -198.5v-633h-174v623q0 272 -221 272q-150 0 -214.5 -110.5t-64.5 -249.5v-535h-174z" />
<glyph unicode="i" d="M256 0v143h328v738h-297v143h471v-881h346v-143h-848zM530 1229v246h246v-246h-246z" />
<glyph unicode="j" d="M225 -223q96 -20 138.5 -24.5t97.5 -4.5q125 0 178 56.5t53 203.5v873h-389v143h563v-1026q0 -410 -383 -410q-141 0 -258 37v152zM637 1229v246h246v-246h-246z" />
<glyph unicode="k" d="M240 0v1485h174v-965l458 504h228l-375 -395l399 -629h-215l-309 502l-186 -189v-313h-174z" />
<glyph unicode="l" d="M256 0v143h328v1198h-308v144h482v-1342h346v-143h-848z" />
<glyph unicode="m" d="M92 0v1024h164v-158q31 84 89 133.5t134 49.5t131.5 -49.5t81.5 -137.5q37 88 101.5 137.5t140.5 49.5q104 0 173 -76t69 -230v-743h-175v729q0 90 -34.5 128t-85.5 38q-164 0 -164 -217v-678h-170v729q0 88 -34 127t-87 39q-84 0 -122 -58.5t-38 -158.5v-678h-174z" />
<glyph unicode="n" d="M211 0v1024h164v-203q43 103 129 165.5t209 62.5q154 0 248 -88q51 -47 74.5 -126t23.5 -202v-633h-174v623q0 272 -213 272q-156 0 -221.5 -110.5t-65.5 -249.5v-535h-174z" />
<glyph unicode="o" d="M158 512q0 162 59 282.5t168 187.5t250 67t249.5 -67t168 -187.5t59.5 -282.5t-59.5 -282.5t-168 -187.5t-249.5 -67t-250 67t-168 188.5t-59 281.5zM342 512q0 -182 78 -283.5t215 -101.5t215 101.5t78 283.5q0 180 -78 282.5t-215 102.5t-215 -101.5t-78 -283.5z" />
<glyph unicode="p" d="M229 -399v1423h164v-190q43 90 130 152.5t192 62.5q131 0 227 -68t147.5 -189.5t51.5 -277.5q0 -160 -52.5 -281.5t-151.5 -189.5t-232 -68q-96 0 -181.5 52.5t-120.5 134.5v-561h-174zM399 489q0 -163 74 -261.5t203 -98.5q133 0 206.5 104.5t73.5 280.5 q0 174 -70.5 277.5t-203.5 103.5q-129 0 -206 -96.5t-77 -259.5v-50z" />
<glyph unicode="q" d="M129 514q0 156 54.5 276.5t154.5 189.5t233 69q94 0 176 -51.5t121 -125.5l35 152h137v-1423h-174v575q-43 -90 -128 -145.5t-191 -55.5q-127 0 -221.5 68t-145.5 189.5t-51 281.5zM313 514q0 -174 73 -279.5t192 -105.5q137 0 214.5 96.5t77.5 257.5v58 q0 161 -78.5 257.5t-207.5 96.5q-127 0 -199 -103.5t-72 -277.5z" />
<glyph unicode="r" d="M287 0v1024h172v-266q53 127 174 206.5t276 79.5q113 0 185 -20v-162q-82 20 -191 21q-125 0 -225 -57.5t-158.5 -170t-58.5 -274.5v-381h-174z" />
<glyph unicode="s" d="M217 315l176 31q20 -113 90 -170t185 -57q102 0 157.5 41t55.5 112q0 76 -40 113t-124 47l-166 19q-147 16 -223 94t-76 200q0 139 104.5 221.5t284.5 82.5q174 0 285.5 -85t128.5 -227l-172 -39q-18 96 -81 152.5t-165 56.5t-158.5 -40t-56.5 -113q0 -135 184 -156 l164 -18q283 -31 283 -291q0 -147 -103.5 -230.5t-290.5 -83.5q-184 0 -299.5 88.5t-142.5 251.5z" />
<glyph unicode="t" d="M180 883v141h293v268l174 74v-342h400v-141h-400v-531q0 -202 195 -202h2q109 0 203 18v-160q-57 -14 -99.5 -20t-101.5 -6q-184 0 -278.5 94t-94.5 252v555h-293z" />
<glyph unicode="u" d="M207 391v633h178v-627q0 -272 213 -272q145 0 205.5 110.5t60.5 253.5v535h174v-1024h-164v195q-32 -84 -118 -152t-193 -68q-166 0 -262 91q-49 47 -71.5 124.5t-22.5 200.5z" />
<glyph unicode="v" d="M129 1024h182l269 -700q35 -84 51 -146h8q18 82 45 146l277 700h178l-412 -1024h-188z" />
<glyph unicode="w" d="M57 1024h183l104 -702l21 -146h14l33 172l133 676h178l133 -676l33 -172h14l21 146l104 702h182l-198 -1024h-219l-134 662q-14 68 -18 167h-14q-4 -100 -19 -167l-133 -662h-219z" />
<glyph unicode="x" d="M158 0l370 528l-344 496h205l248 -383l233 383h213l-338 -508l365 -516h-207l-270 408l-268 -408h-207z" />
<glyph unicode="y" d="M166 1024h196l289 -821l285 821h186l-409 -1090q-68 -188 -161 -267t-228 -79q-51 0 -95 9v153q53 -4 74 -4q92 0 146.5 44t89.5 147l26 75z" />
<glyph unicode="z" d="M209 0v133l600 744h-580v147h789v-129l-594 -745h625v-150h-840z" />
<glyph unicode="{" d="M299 580v159q74 0 108.5 23.5t44 64.5t9.5 119v299q0 137 98 221t268 84h162v-143h-162q-98 0 -152 -55.5t-54 -149.5v-235q0 -123 -28 -200t-106 -105q78 -35 104.5 -116t26.5 -204v-227q0 -94 56.5 -149.5t154.5 -55.5h160v-143h-160q-170 0 -268 83.5t-98 221.5v293 q0 72 -10.5 116.5t-46 71.5t-107.5 27z" />
<glyph unicode="|" d="M561 -240v1796h148v-1796h-148z" />
<glyph unicode="}" d="M281 -90h159q98 0 154.5 55t56.5 150v227q0 123 27 204t104 116q-78 29 -105.5 105.5t-27.5 199.5v235q0 94 -54 149.5t-153 55.5h-161v143h161q170 0 268.5 -84t98.5 -221v-299q0 -78 9 -119t44 -64.5t109 -23.5v-159q-72 0 -108 -27t-46 -72t-10 -116v-293 q0 -137 -98.5 -221t-268.5 -84h-159v143z" />
<glyph unicode="~" d="M135 539q27 131 111 194.5t192 63.5q70 0 122 -22.5t120 -67.5q53 -35 88 -51.5t74 -16.5q57 0 95 36t60 113l138 -32q-37 -139 -118 -205t-181 -66q-70 0 -120 22.5t-116 67.5q-51 35 -85 51.5t-73 16.5q-123 0 -157 -121z" />
<glyph unicode="&#xa0;" />
<glyph unicode="&#xa1;" d="M498 793v262h272v-262h-272zM530 -399l33 1073h142l32 -1073h-207z" />
<glyph unicode="&#xa2;" d="M188 518q0 219 105.5 362.5t306.5 163.5v173h100v-170q160 -10 262.5 -105.5t118.5 -259.5l-178 -20q-12 102 -63.5 160.5t-139.5 70.5v-762q178 25 213 244l166 -27q-25 -156 -120 -257t-259 -114v-159h-100v159q-199 20 -305.5 169t-106.5 372zM369 520q0 -160 58 -262 t173 -123v758q-113 -20 -172 -118.5t-59 -254.5z" />
<glyph unicode="&#xa3;" d="M63 113q291 96 291 381q0 98 -16 186h-223v129h198q-27 129 -26 215q0 137 54 233.5t148.5 146.5t210.5 50q164 0 264.5 -81t137.5 -230l-180 -45q-47 203 -224 202q-98 0 -157.5 -66.5t-59.5 -203.5q0 -88 27 -221h350v-129h-328q12 -70 13 -150q0 -143 -52.5 -229 t-152.5 -139q57 14 151 14q74 0 166 -18q102 -16 164 -17q76 0 131.5 48.5t69.5 160.5l164 -33q-25 -184 -128.5 -266t-234.5 -82q-51 0 -90 6.5t-98 18.5q-61 14 -108.5 21.5t-108.5 7.5q-154 0 -314 -39z" />
<glyph unicode="&#xa4;" d="M166 195l119 129q-96 123 -97 297q0 176 97 299l-119 129l82 73l119 -125q119 86 276 86q152 0 266 -79l113 120l82 -73l-113 -123q49 -59 77 -138t28 -169q-1 -181 -101 -304l109 -120l-82 -74l-109 117q-117 -82 -270 -82q-162 0 -281 88l-114 -125zM348 621 q0 -143 85 -230.5t210 -87.5t209 87t84 231q0 143 -84 230t-209 87t-210 -87t-85 -230z" />
<glyph unicode="&#xa5;" d="M96 1423h207l330 -573l332 573h206l-444 -739h377v-123h-377v-145h377v-123h-377v-293h-184v293h-383v123h383v145h-383v123h383z" />
<glyph unicode="&#xa6;" d="M561 -240v775h146v-775h-146zM561 782v774h146v-774h-146z" />
<glyph unicode="&#xa7;" d="M178 752q0 80 41 148.5t129 111.5q-90 84 -90 207q0 143 111.5 227t287.5 84q168 0 267.5 -79t119.5 -218l-172 -41q-18 100 -76.5 150.5t-160.5 50.5q-84 0 -138.5 -43t-54.5 -113q0 -45 14.5 -74.5t55.5 -59.5t123 -65l164 -71q156 -68 224.5 -147t68.5 -185 q0 -82 -42 -149.5t-130 -110.5q102 -86 102 -205q0 -150 -115.5 -230.5t-304.5 -80.5q-176 0 -286.5 91t-122.5 234l174 35q20 -96 88.5 -152.5t169.5 -56.5q94 0 155.5 38t61.5 104q0 43 -16.5 72.5t-59.5 58t-131 67.5l-164 72q-156 68 -224.5 145.5t-68.5 184.5zM365 786 q0 -55 22.5 -92t68.5 -66.5t140 -74.5l166 -80l61 -31q43 39 62.5 77t19.5 83q0 59 -29.5 100t-76.5 70t-137 70l-76 35l-135 65l-7 2q-43 -39 -61 -76t-18 -82z" />
<glyph unicode="&#xa8;" d="M307 1229v246h244v-246h-244zM719 1229v246h244v-246h-244z" />
<glyph unicode="&#xa9;" d="M125 571v306q0 205 68.5 341t184.5 201.5t257 65.5t257 -65.5t184.5 -202t68.5 -340.5v-306q0 -205 -68.5 -341t-184.5 -201.5t-257 -65.5t-257 65.5t-184.5 202t-68.5 340.5zM227 571q0 -260 116 -386t292 -126t291.5 126t115.5 386v306q0 260 -115.5 386t-291.5 126 t-292 -126t-116 -386v-306zM360 641v180q0 342 285 342q121 0 188.5 -77.5t73.5 -211.5l-143 -8q-8 174 -123 174q-66 0 -100.5 -47t-34.5 -172v-180q0 -127 34.5 -177t102.5 -50q59 0 90 49t35 119l141 -21q-10 -117 -72.5 -193.5t-189.5 -76.5q-287 0 -287 350z" />
<glyph unicode="&#xaa;" d="M291 834q0 109 84 161t239 70l185 22q-2 109 -36 155t-118 46q-78 0 -120 -37t-46 -106h-166q10 121 99.5 188.5t240.5 67.5q156 0 229.5 -75t73.5 -232v-220q0 -165 23 -239h-158q-8 61 -12 127q-74 -145 -266 -146q-113 0 -182.5 60.5t-69.5 157.5zM455 848 q0 -55 37.5 -88t103.5 -33q92 0 148.5 59.5t56.5 153.5v57l-164 -20q-96 -12 -139 -43t-43 -86z" />
<glyph unicode="&#xab;" d="M133 563l354 424h185l-342 -422l336 -428h-189zM526 563l355 424h184l-342 -422l336 -428h-189z" />
<glyph unicode="&#xac;" d="M158 602v164h952v-498h-164v334h-788z" />
<glyph unicode="&#xad;" d="M338 487v164h592v-164h-592z" />
<glyph unicode="&#xae;" d="M125 571v306q0 205 68.5 341t184.5 201.5t257 65.5t257 -65.5t184.5 -202t68.5 -340.5v-306q0 -205 -68.5 -341t-184.5 -201.5t-257 -65.5t-257 65.5t-184.5 202t-68.5 340.5zM227 571q0 -260 116 -386t292 -126t291.5 126t115.5 386v306q0 260 -115.5 386t-291.5 126 t-292 -126t-116 -386v-306zM387 319v832h250q141 0 204.5 -66.5t63.5 -173.5q0 -67 -33.5 -127.5t-115.5 -93.5l172 -371h-150l-147 351h-109v-351h-135zM522 786h94q156 0 156 125q0 61 -36 93t-120 32h-94v-250z" />
<glyph unicode="&#xaf;" d="M340 1229v139h590v-139h-590z" />
<glyph unicode="&#xb0;" d="M317 1143q0 92 43 166.5t116 116.5t159 42t159.5 -43t115.5 -117.5t42 -164.5q0 -88 -42 -163t-114.5 -119t-160.5 -44q-86 0 -160 43t-116 118t-42 165zM461 1143q0 -80 50 -134.5t124 -54.5t124 54.5t50 134.5q0 82 -50 135t-124 53t-124 -53t-50 -135z" />
<glyph unicode="&#xb1;" d="M154 0v164h962v-164h-962zM154 598v150h393v329h176v-329h393v-150h-393v-328h-176v328h-393z" />
<glyph unicode="&#xb4;" d="M439 1182l176 293h217l-240 -293h-153z" />
<glyph unicode="&#xb5;" d="M207 -399v1423h178v-627q0 -272 213 -272q145 0 205.5 110.5t60.5 253.5v535h174v-1024h-164v195q-33 -84 -118.5 -152t-192.5 -68q-102 0 -182 37v-411h-174z" />
<glyph unicode="&#xb6;" d="M90 1104q0 195 136 283t347 88h607v-107h-213v-1573h-123v1573h-158v-1573h-123v944q-209 0 -341 82t-132 283z" />
<glyph unicode="&#xb7;" d="M698 616v263h273v-263h-273z" />
<glyph unicode="&#xb8;" d="M424 -297l117 39q27 -57 86 -57q37 0 62.5 22.5t25.5 61.5q0 41 -24.5 62.5t-57.5 21.5q-47 0 -72 -31l-79 24l88 168h108l-72 -114q12 12 38 18t51 6q68 0 109.5 -40t41.5 -105q0 -82 -65.5 -134.5t-155.5 -52.5q-143 0 -201 111z" />
<glyph unicode="&#xba;" d="M266 1010q0 180 102.5 285.5t266.5 105.5t266.5 -105.5t102.5 -285.5q0 -182 -102.5 -288t-266.5 -106t-266.5 105.5t-102.5 288.5zM428 1010q0 -129 55.5 -201t151.5 -72t150.5 72t54.5 201t-54.5 199.5t-150.5 70.5t-151.5 -71.5t-55.5 -198.5z" />
<glyph unicode="&#xbb;" d="M205 987l342 -422l-336 -428h188l344 426l-354 424h-184zM598 987l342 -422l-336 -428h189l344 426l-355 424h-184z" />
<glyph unicode="&#xbc;" horiz-adv-x="2539" d="M297 672v104h225v512q-27 -27 -90 -49t-114 -22h-11v124h8q66 0 135.5 32t94.5 79h121v-676h213v-104h-582zM702 -35l1057 1524h176l-1055 -1524h-178zM1575 184v103l377 493h162v-489h129v-107h-129v-184h-135v184h-404zM1686 291h293v375z" />
<glyph unicode="&#xbd;" horiz-adv-x="2539" d="M297 672v104h225v512q-27 -27 -90 -49t-114 -22h-11v124h8q66 0 135.5 32t94.5 79h121v-676h213v-104h-582zM682 -35l1057 1524h176l-1055 -1524h-178zM1657 0v106q205 140 309.5 242.5t104.5 196.5q0 66 -34 101.5t-97 35.5t-98 -34t-35 -97q0 -37 4 -49l-146 12 q-4 37 -4 45q0 109 77 174.5t202 65.5q133 0 204.5 -64.5t71.5 -181.5q0 -113 -99.5 -221.5t-266.5 -218.5h393v-113h-586z" />
<glyph unicode="&#xbe;" horiz-adv-x="2539" d="M344 903l152 10q-2 -63 37.5 -106t105.5 -43q61 0 100 32.5t39 94.5q0 129 -149 129h-60v94h54q59 0 99 30t40 91q0 59 -35 91t-94 32q-68 0 -102.5 -42t-30.5 -112l-152 13q-4 117 72 185t213 68q129 0 202.5 -57t73.5 -158q0 -74 -44 -123t-118 -61q84 -4 133.5 -55 t49.5 -137q0 -100 -80 -162t-211 -62q-139 0 -216 65.5t-79 182.5zM678 -35l1057 1524h176l-1055 -1524h-178zM1530 184v103l377 493h162v-489h129v-107h-129v-184h-135v184h-404zM1641 291h293v375z" />
<glyph unicode="&#xbf;" d="M180 -41q0 100 52.5 184t140.5 172l102 105q45 45 64.5 99t19.5 128v37h174v-88q0 -63 -22.5 -122.5t-94.5 -133.5l-100 -102q-68 -68 -104.5 -129.5t-36.5 -149.5q0 -102 71.5 -165.5t182.5 -63.5q127 0 200.5 70.5t73.5 209.5q0 63 -10 109l186 -23q8 -53 8 -106 q0 -188 -121.5 -301t-336.5 -113q-209 0 -329 100.5t-120 282.5zM500 803v262h272v-262h-272z" />
<glyph unicode="&#xc0;" d="M59 0l467 1454h217l467 -1454h-188l-135 420h-506l-133 -420h-189zM340 1810h233l144 -219h-164zM432 584h404q-137 428 -199 702h-4q-58 -251 -201 -702z" />
<glyph unicode="&#xc1;" d="M59 0l467 1454h217l467 -1454h-188l-135 420h-506l-133 -420h-189zM432 584h404q-137 428 -199 702h-4q-58 -251 -201 -702zM553 1591l143 219h234l-213 -219h-164z" />
<glyph unicode="&#xc2;" d="M59 0l467 1454h217l467 -1454h-188l-135 420h-506l-133 -420h-189zM328 1589l198 221h215l201 -221h-178l-133 142l-129 -142h-174zM432 584h404q-137 428 -199 702h-4q-58 -251 -201 -702z" />
<glyph unicode="&#xc3;" d="M59 0l467 1454h217l467 -1454h-188l-135 420h-506l-133 -420h-189zM246 1610q20 106 87.5 158.5t153.5 52.5q51 0 90 -15.5t87 -44.5q43 -27 69.5 -38t61.5 -11q88 0 106 92l121 -20q-16 -100 -79.5 -153.5t-164.5 -53.5q-55 0 -92 15.5t-84 43.5q-37 25 -64.5 37.5 t-64.5 12.5q-81 -1 -104 -99zM432 584h404q-137 428 -199 702h-4q-58 -251 -201 -702z" />
<glyph unicode="&#xc4;" d="M59 0l467 1454h217l467 -1454h-188l-135 420h-506l-133 -420h-189zM291 1583v227h223v-227h-223zM432 584h404q-137 428 -199 702h-4q-58 -251 -201 -702zM756 1583v227h223v-227h-223z" />
<glyph unicode="&#xc5;" d="M59 0l467 1454h217l467 -1454h-188l-135 420h-506l-133 -420h-189zM430 1690q0 82 56.5 134t148.5 52t148.5 -52t56.5 -134t-56.5 -134.5t-148.5 -52.5t-148.5 52.5t-56.5 134.5zM432 584h404q-137 428 -199 702h-4q-58 -251 -201 -702zM545 1690q0 -41 25.5 -68 t64.5 -27t64.5 27t25.5 68t-25.5 67.5t-64.5 26.5t-64.5 -26.5t-25.5 -67.5z" />
<glyph unicode="&#xc6;" d="M41 0l401 1454h711v-164h-414v-465h379v-159h-379v-502h428v-164h-608v342h-246l-86 -342h-186zM350 494h209v829z" />
<glyph unicode="&#xc7;" d="M111 674v106q0 336 138 522.5t396 186.5q457 0 512 -512l-190 -31q-12 182 -94 280.5t-230 98.5q-172 0 -254 -130t-82 -404v-105q0 -276 85 -416.5t251 -140.5q150 0 230.5 98.5t93.5 282.5l188 -39q-23 -219 -144.5 -356.5t-344.5 -149.5l-41 -65q12 12 37.5 18t50.5 6 q68 0 109.5 -40t41.5 -105q0 -82 -65.5 -134.5t-155.5 -52.5q-143 0 -201 111l117 39q27 -57 86 -57q37 0 62.5 22.5t25.5 61.5q0 41 -24.5 62.5t-57.5 21.5q-47 0 -71 -31l-80 24l63 123q-223 23 -337.5 205t-114.5 500z" />
<glyph unicode="&#xc8;" d="M215 0v1454h850v-164h-659v-465h624v-159h-624v-502h673v-164h-864zM340 1810h233l144 -219h-164z" />
<glyph unicode="&#xc9;" d="M215 0v1454h850v-164h-659v-465h624v-159h-624v-502h673v-164h-864zM553 1591l143 219h234l-213 -219h-164z" />
<glyph unicode="&#xca;" d="M215 0v1454h850v-164h-659v-465h624v-159h-624v-502h673v-164h-864zM328 1589l198 221h215l201 -221h-178l-133 142l-129 -142h-174z" />
<glyph unicode="&#xcb;" d="M215 0v1454h850v-164h-659v-465h624v-159h-624v-502h673v-164h-864zM291 1583v227h223v-227h-223zM756 1583v227h223v-227h-223z" />
<glyph unicode="&#xcc;" d="M176 0v154h363v1146h-363v154h918v-154h-365v-1146h365v-154h-918zM340 1810h233l144 -219h-164z" />
<glyph unicode="&#xcd;" d="M176 0v154h363v1146h-363v154h918v-154h-365v-1146h365v-154h-918zM553 1591l143 219h234l-213 -219h-164z" />
<glyph unicode="&#xce;" d="M176 0v154h363v1146h-363v154h918v-154h-365v-1146h365v-154h-918zM328 1589l198 221h215l201 -221h-178l-133 142l-129 -142h-174z" />
<glyph unicode="&#xcf;" d="M176 0v154h363v1146h-363v154h918v-154h-365v-1146h365v-154h-918zM291 1583v227h223v-227h-223zM756 1583v227h223v-227h-223z" />
<glyph unicode="&#xd0;" d="M0 674v147h156v633h426q194 0 334.5 -92t212 -257t71.5 -376q0 -209 -76.5 -375t-217 -260t-328.5 -94h-422v674h-156zM346 160h229q134 0 230 77.5t147.5 207.5t51.5 284q0 158 -48.5 287t-143.5 203.5t-232 74.5h-234v-473h342v-147h-342v-514z" />
<glyph unicode="&#xd1;" d="M166 0v1454h250l428 -989q51 -121 69 -191h5q-4 49 -5 156v1024h191v-1454h-223l-457 1047q-23 49 -41 102t-25 70h-6q4 -39 4 -125v-1094h-190zM246 1610q20 106 87.5 158.5t153.5 52.5q52 0 90.5 -15.5t86.5 -44.5q43 -27 69.5 -38t61.5 -11q88 0 106 92l121 -20 q-16 -100 -79.5 -153.5t-164.5 -53.5q-55 0 -92 15.5t-84 43.5q-37 25 -64.5 37.5t-64.5 12.5q-82 0 -104 -99z" />
<glyph unicode="&#xd2;" d="M104 662v131q0 330 134.5 513t396.5 183t396 -183.5t134 -512.5v-131q0 -330 -134 -513.5t-396 -183.5t-396.5 183.5t-134.5 513.5zM303 662q0 -274 81 -403.5t251 -129.5t251 129t81 404v131q0 274 -81 403t-251 129t-251 -129t-81 -403v-131zM340 1810h233l144 -219 h-164z" />
<glyph unicode="&#xd3;" d="M104 662v131q0 330 134.5 513t396.5 183t396 -183.5t134 -512.5v-131q0 -330 -134 -513.5t-396 -183.5t-396.5 183.5t-134.5 513.5zM303 662q0 -274 81 -403.5t251 -129.5t251 129t81 404v131q0 274 -81 403t-251 129t-251 -129t-81 -403v-131zM553 1591l143 219h234 l-213 -219h-164z" />
<glyph unicode="&#xd4;" d="M104 662v131q0 330 134.5 513t396.5 183t396 -183.5t134 -512.5v-131q0 -330 -134 -513.5t-396 -183.5t-396.5 183.5t-134.5 513.5zM303 662q0 -274 81 -403.5t251 -129.5t251 129t81 404v131q0 274 -81 403t-251 129t-251 -129t-81 -403v-131zM328 1589l198 221h215 l201 -221h-178l-133 142l-129 -142h-174z" />
<glyph unicode="&#xd5;" d="M104 662v131q0 330 134.5 513t396.5 183t396 -183.5t134 -512.5v-131q0 -330 -134 -513.5t-396 -183.5t-396.5 183.5t-134.5 513.5zM246 1610q20 106 87.5 158.5t153.5 52.5q52 0 90.5 -15.5t86.5 -44.5q43 -27 69.5 -38t61.5 -11q88 0 106 92l121 -20 q-16 -100 -79.5 -153.5t-164.5 -53.5q-55 0 -92 15.5t-84 43.5q-37 25 -64.5 37.5t-64.5 12.5q-82 0 -104 -99zM303 662q0 -274 81 -403.5t251 -129.5t251 129t81 404v131q0 274 -81 403t-251 129t-251 -129t-81 -403v-131z" />
<glyph unicode="&#xd6;" d="M104 662v131q0 330 134.5 513t396.5 183t396 -183.5t134 -512.5v-131q0 -330 -134 -513.5t-396 -183.5t-396.5 183.5t-134.5 513.5zM291 1583v227h223v-227h-223zM303 662q0 -274 81 -403.5t251 -129.5t251 129t81 404v131q0 274 -81 403t-251 129t-251 -129t-81 -403 v-131zM756 1583v227h223v-227h-223z" />
<glyph unicode="&#xd7;" d="M137 289l381 381l-381 381l117 116l381 -379l379 379l119 -116l-381 -381l381 -379l-117 -119l-381 381l-381 -381z" />
<glyph unicode="&#xd8;" d="M88 -16l125 202q-109 176 -109 476v131q0 330 134.5 513t396.5 183q195 0 321 -105l86 140l105 -58l-107 -172q125 -179 125 -501v-131q0 -330 -134 -513.5t-396 -183.5q-213 0 -342 123l-98 -158zM303 662q0 -168 31 -283l526 852q-80 94 -225 94q-170 0 -251 -129 t-81 -403v-131zM391 248q82 -119 244 -119q170 0 251 129t81 404v131q0 190 -41 317z" />
<glyph unicode="&#xd9;" d="M139 485v969h191v-969q0 -166 79.5 -261t231.5 -95q154 0 226.5 94t72.5 262v969h190v-969q0 -238 -121.5 -379t-367.5 -141t-374 142.5t-128 377.5zM340 1810h233l144 -219h-164z" />
<glyph unicode="&#xda;" d="M139 485v969h191v-969q0 -166 79.5 -261t231.5 -95q154 0 226.5 94t72.5 262v969h190v-969q0 -238 -121.5 -379t-367.5 -141t-374 142.5t-128 377.5zM553 1591l143 219h234l-213 -219h-164z" />
<glyph unicode="&#xdb;" d="M139 485v969h191v-969q0 -166 79.5 -261t231.5 -95q154 0 226.5 94t72.5 262v969h190v-969q0 -238 -121.5 -379t-367.5 -141t-374 142.5t-128 377.5zM328 1589l198 221h215l201 -221h-178l-133 142l-129 -142h-174z" />
<glyph unicode="&#xdc;" d="M139 485v969h191v-969q0 -166 79.5 -261t231.5 -95q154 0 226.5 94t72.5 262v969h190v-969q0 -238 -121.5 -379t-367.5 -141t-374 142.5t-128 377.5zM291 1583v227h223v-227h-223zM756 1583v227h223v-227h-223z" />
<glyph unicode="&#xdd;" d="M68 1454h211l356 -717l356 717h211l-471 -874v-580h-190v580zM553 1591l143 219h234l-213 -219h-164z" />
<glyph unicode="&#xde;" d="M201 0v1454h184v-250h293q233 0 342.5 -116.5t109.5 -282.5q0 -90 -43 -179t-144 -150.5t-265 -61.5h-293v-414h-184zM385 569h281q150 0 215 73t65 163q0 102 -67.5 173t-212.5 71h-281v-480z" />
<glyph unicode="&#xdf;" d="M221 0v1055q0 190 98.5 312t301.5 122q123 0 215 -45t141 -123t49 -174q0 -115 -70.5 -196t-177.5 -109q152 -31 252 -128.5t100 -273.5q0 -137 -65.5 -239.5t-185 -156.5t-277.5 -54h-74v145h74q170 0 255 80t85 215q0 133 -88 226.5t-293 103.5v135q147 6 212 70.5 t65 162.5t-56.5 161t-165.5 63q-111 0 -166 -73t-55 -208v-1071h-174z" />
<glyph unicode="&#xe0;" d="M168 276q0 160 143 242q98 53 348 84l187 23v18q0 137 -52.5 199.5t-166.5 62.5q-109 0 -171.5 -53t-68.5 -150h-186q14 164 128.5 255.5t309.5 91.5q199 0 291 -102.5t92 -323.5v-277q0 -240 35 -346h-183q-12 92 -16 186q-51 -109 -136 -160t-210 -51q-152 0 -248 84 t-96 217zM318 1475h217l176 -293h-154zM352 287q0 -78 51.5 -123t141.5 -45q139 0 221 89t82 238v52l-244 -33q-133 -18 -192.5 -60.5t-59.5 -117.5z" />
<glyph unicode="&#xe1;" d="M168 276q0 160 143 242q98 53 348 84l187 23v18q0 137 -52.5 199.5t-166.5 62.5q-109 0 -171.5 -53t-68.5 -150h-186q14 164 128.5 255.5t309.5 91.5q199 0 291 -102.5t92 -323.5v-277q0 -240 35 -346h-183q-12 92 -16 186q-51 -109 -136 -160t-210 -51q-152 0 -248 84 t-96 217zM352 287q0 -78 51.5 -123t141.5 -45q139 0 221 89t82 238v52l-244 -33q-133 -18 -192.5 -60.5t-59.5 -117.5zM558 1182l176 293h217l-240 -293h-153z" />
<glyph unicode="&#xe2;" d="M168 276q0 160 143 242q98 53 348 84l187 23v18q0 137 -52.5 199.5t-166.5 62.5q-109 0 -171.5 -53t-68.5 -150h-186q14 164 128.5 255.5t309.5 91.5q199 0 291 -102.5t92 -323.5v-277q0 -240 35 -346h-183q-12 92 -16 186q-51 -109 -136 -160t-210 -51q-152 0 -248 84 t-96 217zM328 1182l211 293h192l211 -293h-172l-135 190l-135 -190h-172zM352 287q0 -78 51.5 -123t141.5 -45q139 0 221 89t82 238v52l-244 -33q-133 -18 -192.5 -60.5t-59.5 -117.5z" />
<glyph unicode="&#xe3;" d="M168 276q0 160 143 242q98 53 348 84l187 23v18q0 137 -52.5 199.5t-166.5 62.5q-109 0 -171.5 -53t-68.5 -150h-186q14 164 128.5 255.5t309.5 91.5q199 0 291 -102.5t92 -323.5v-277q0 -240 35 -346h-183q-12 92 -16 186q-51 -109 -136 -160t-210 -51q-152 0 -248 84 t-96 217zM256 1253q23 119 89.5 175.5t144.5 56.5q57 0 95 -18.5t89 -57.5q37 -29 61.5 -42t53.5 -13q33 0 60.5 28.5t39.5 85.5l121 -20q-31 -125 -93.5 -181.5t-142.5 -56.5q-51 0 -85.5 18.5t-77.5 53.5q-35 29 -63 44t-62 15q-41 0 -69 -30.5t-38 -79.5zM352 287 q0 -78 51.5 -123t141.5 -45q139 0 221 89t82 238v52l-244 -33q-133 -18 -192.5 -60.5t-59.5 -117.5z" />
<glyph unicode="&#xe4;" d="M168 276q0 160 143 242q98 53 348 84l187 23v18q0 137 -52.5 199.5t-166.5 62.5q-109 0 -171.5 -53t-68.5 -150h-186q14 164 128.5 255.5t309.5 91.5q199 0 291 -102.5t92 -323.5v-277q0 -240 35 -346h-183q-12 92 -16 186q-51 -109 -136 -160t-210 -51q-152 0 -248 84 t-96 217zM307 1229v246h244v-246h-244zM352 287q0 -78 51.5 -123t141.5 -45q139 0 221 89t82 238v52l-244 -33q-133 -18 -192.5 -60.5t-59.5 -117.5zM719 1229v246h244v-246h-244z" />
<glyph unicode="&#xe5;" d="M168 276q0 160 143 242q98 53 348 84l187 23v18q0 137 -52.5 199.5t-166.5 62.5q-109 0 -171.5 -53t-68.5 -150h-186q14 164 128.5 255.5t309.5 91.5q199 0 291 -102.5t92 -323.5v-277q0 -240 35 -346h-183q-12 92 -16 186q-51 -109 -136 -160t-210 -51q-152 0 -248 84 t-96 217zM352 287q0 -78 51.5 -123t141.5 -45q139 0 221 89t82 238v52l-244 -33q-133 -18 -192.5 -60.5t-59.5 -117.5zM416 1337q0 90 60.5 149.5t158.5 59.5t158.5 -59.5t60.5 -149.5t-60.5 -149.5t-158.5 -59.5t-158.5 59.5t-60.5 149.5zM533 1337q0 -47 27.5 -78.5 t74.5 -31.5t75 31.5t28 78.5t-28 79t-75 32t-74.5 -32t-27.5 -79z" />
<glyph unicode="&#xe6;" d="M51 262q0 137 71 210t232 101l195 35v117q0 94 -37 140t-117 46q-74 0 -114.5 -46t-40.5 -138v-43h-172v6q0 180 92 267t235 87q170 0 248 -94q88 94 240 94q154 0 242.5 -99t88.5 -286v-170h-495v-149q0 -106 44 -161.5t120 -55.5t122 57.5t46 153.5v33l168 -33v-6 q0 -158 -91.5 -255.5t-246.5 -97.5q-88 0 -160 38t-115 106q-39 -63 -109.5 -102.5t-156.5 -39.5q-127 0 -208 76t-81 209zM225 283q0 -86 41 -130t109 -44q70 0 123 55t53 143v189l-135 -27q-96 -18 -143.5 -58t-47.5 -128zM719 606h321v72q0 223 -159 223 q-162 0 -162 -225v-70z" />
<glyph unicode="&#xe7;" d="M164 518q0 240 122 385.5t355 145.5q174 0 285.5 -96.5t130.5 -270.5l-178 -20q-14 115 -78 175t-172 60q-137 0 -211 -101.5t-74 -275.5q0 -180 75 -285.5t216 -105.5q215 0 254 246l166 -27q-25 -158 -121 -259t-260 -112l-49 -77q12 12 37.5 18t50.5 6q68 0 109.5 -40 t41.5 -105q0 -82 -65.5 -134.5t-155.5 -52.5q-143 0 -201 111l117 39q27 -57 86 -57q37 0 62.5 22.5t25.5 61.5q0 41 -24.5 62.5t-57.5 21.5q-47 0 -71 -31l-80 24l69 134q-195 23 -300 170t-105 368z" />
<glyph unicode="&#xe8;" d="M164 532q0 156 57.5 273t162.5 180.5t247 63.5q223 0 328.5 -139.5t105.5 -364.5q0 -25 -4 -78h-719q0 -147 81 -242.5t220 -95.5q176 0 270 182l148 -78q-131 -258 -418 -258q-236 0 -357.5 149.5t-121.5 407.5zM318 1475h217l176 -293h-154zM342 610h543 q4 131 -63.5 217t-198.5 86q-88 0 -151.5 -43t-96.5 -112.5t-33 -147.5z" />
<glyph unicode="&#xe9;" d="M164 532q0 156 57.5 273t162.5 180.5t247 63.5q223 0 328.5 -139.5t105.5 -364.5q0 -25 -4 -78h-719q0 -147 81 -242.5t220 -95.5q176 0 270 182l148 -78q-131 -258 -418 -258q-236 0 -357.5 149.5t-121.5 407.5zM342 610h543q4 131 -63.5 217t-198.5 86 q-88 0 -151.5 -43t-96.5 -112.5t-33 -147.5zM558 1182l176 293h217l-240 -293h-153z" />
<glyph unicode="&#xea;" d="M164 532q0 156 57.5 273t162.5 180.5t247 63.5q223 0 328.5 -139.5t105.5 -364.5q0 -25 -4 -78h-719q0 -147 81 -242.5t220 -95.5q176 0 270 182l148 -78q-131 -258 -418 -258q-236 0 -357.5 149.5t-121.5 407.5zM328 1182l211 293h192l211 -293h-172l-135 190l-135 -190 h-172zM342 610h543q4 131 -63.5 217t-198.5 86q-88 0 -151.5 -43t-96.5 -112.5t-33 -147.5z" />
<glyph unicode="&#xeb;" d="M164 532q0 156 57.5 273t162.5 180.5t247 63.5q223 0 328.5 -139.5t105.5 -364.5q0 -25 -4 -78h-719q0 -147 81 -242.5t220 -95.5q176 0 270 182l148 -78q-131 -258 -418 -258q-236 0 -357.5 149.5t-121.5 407.5zM307 1229v246h244v-246h-244zM342 610h543 q4 131 -63.5 217t-198.5 86q-88 0 -151.5 -43t-96.5 -112.5t-33 -147.5zM719 1229v246h244v-246h-244z" />
<glyph unicode="&#xec;" d="M256 0v143h328v738h-297v143h471v-881h346v-143h-848zM336 1475h217l176 -293h-154z" />
<glyph unicode="&#xed;" d="M256 0v143h328v738h-297v143h471v-881h346v-143h-848zM576 1182l176 293h217l-240 -293h-153z" />
<glyph unicode="&#xee;" d="M256 0v143h328v738h-297v143h471v-881h346v-143h-848zM346 1182l211 293h192l211 -293h-172l-135 190l-135 -190h-172z" />
<glyph unicode="&#xef;" d="M256 0v143h328v738h-297v143h471v-881h346v-143h-848zM325 1229v246h244v-246h-244zM737 1229v246h244v-246h-244z" />
<glyph unicode="&#xf0;" d="M168 512q0 240 115.5 384t316.5 144q100 0 154.5 -39.5t91.5 -97.5q-59 162 -166 281l-332 -103l-41 111l277 86q-76 61 -172 98l114 109q123 -55 230 -154l180 55l39 -110l-131 -41q112 -141 174.5 -324.5t62.5 -386.5q0 -154 -57 -278.5t-162.5 -197.5t-247.5 -73 q-209 0 -327.5 144.5t-118.5 392.5zM354 512q0 -166 64.5 -274.5t202.5 -108.5q145 0 210.5 105.5t65.5 277.5t-66.5 277.5t-209.5 105.5q-133 0 -200 -106.5t-67 -276.5z" />
<glyph unicode="&#xf1;" d="M211 0v1024h164v-203q43 103 129 165.5t209 62.5q154 0 248 -88q51 -47 74.5 -126t23.5 -202v-633h-174v623q0 272 -213 272q-156 0 -221.5 -110.5t-65.5 -249.5v-535h-174zM256 1253q23 119 89.5 175.5t144.5 56.5q57 0 95 -18.5t89 -57.5q37 -29 61.5 -42t53.5 -13 q33 0 60.5 28.5t39.5 85.5l121 -20q-31 -125 -93.5 -181.5t-142.5 -56.5q-51 0 -85.5 18.5t-77.5 53.5q-35 29 -63 44t-62 15q-41 0 -69 -30.5t-38 -79.5z" />
<glyph unicode="&#xf2;" d="M158 512q0 162 59 282.5t168 187.5t250 67t249.5 -67t168 -187.5t59.5 -282.5t-59.5 -282.5t-168 -187.5t-249.5 -67t-250 67t-168 188.5t-59 281.5zM318 1475h217l176 -293h-154zM342 512q0 -182 78 -283.5t215 -101.5t215 101.5t78 283.5q0 180 -78 282.5t-215 102.5 t-215 -101.5t-78 -283.5z" />
<glyph unicode="&#xf3;" d="M158 512q0 162 59 282.5t168 187.5t250 67t249.5 -67t168 -187.5t59.5 -282.5t-59.5 -282.5t-168 -187.5t-249.5 -67t-250 67t-168 188.5t-59 281.5zM342 512q0 -182 78 -283.5t215 -101.5t215 101.5t78 283.5q0 180 -78 282.5t-215 102.5t-215 -101.5t-78 -283.5z M558 1182l176 293h217l-240 -293h-153z" />
<glyph unicode="&#xf4;" d="M158 512q0 162 59 282.5t168 187.5t250 67t249.5 -67t168 -187.5t59.5 -282.5t-59.5 -282.5t-168 -187.5t-249.5 -67t-250 67t-168 188.5t-59 281.5zM328 1182l211 293h192l211 -293h-172l-135 190l-135 -190h-172zM342 512q0 -182 78 -283.5t215 -101.5t215 101.5 t78 283.5q0 180 -78 282.5t-215 102.5t-215 -101.5t-78 -283.5z" />
<glyph unicode="&#xf5;" d="M158 512q0 162 59 282.5t168 187.5t250 67t249.5 -67t168 -187.5t59.5 -282.5t-59.5 -282.5t-168 -187.5t-249.5 -67t-250 67t-168 188.5t-59 281.5zM256 1253q23 119 89.5 175.5t144.5 56.5q57 0 95 -18.5t89 -57.5q37 -29 61.5 -42t53.5 -13q33 0 60.5 28.5t39.5 85.5 l121 -20q-31 -125 -93.5 -181.5t-142.5 -56.5q-51 0 -85.5 18.5t-77.5 53.5q-35 29 -63 44t-62 15q-41 0 -69 -30.5t-38 -79.5zM342 512q0 -182 78 -283.5t215 -101.5t215 101.5t78 283.5q0 180 -78 282.5t-215 102.5t-215 -101.5t-78 -283.5z" />
<glyph unicode="&#xf6;" d="M158 512q0 162 59 282.5t168 187.5t250 67t249.5 -67t168 -187.5t59.5 -282.5t-59.5 -282.5t-168 -187.5t-249.5 -67t-250 67t-168 188.5t-59 281.5zM307 1229v246h244v-246h-244zM342 512q0 -182 78 -283.5t215 -101.5t215 101.5t78 283.5q0 180 -78 282.5t-215 102.5 t-215 -101.5t-78 -283.5zM719 1229v246h244v-246h-244z" />
<glyph unicode="&#xf7;" d="M154 590v155h962v-155h-962zM528 283q0 47 30 76.5t77 29.5t76.5 -28.5t29.5 -77.5q0 -47 -29.5 -77t-76.5 -30t-77 30t-30 77zM528 1053q0 47 30 76.5t77 29.5t76.5 -28.5t29.5 -77.5q0 -47 -29.5 -77t-76.5 -30t-77 30t-30 77z" />
<glyph unicode="&#xf8;" d="M158 512q0 162 59 282.5t168 187.5t250 67q166 0 285 -91l75 95l90 -64l-86 -108q113 -146 113 -369q0 -162 -59.5 -282.5t-168 -187.5t-249.5 -67q-166 0 -285 91l-76 -95l-88 64l86 108q-115 143 -114 369zM342 512q0 -135 43 -227l434 544q-74 68 -184 68 q-137 0 -215 -101.5t-78 -283.5zM451 193q76 -66 184 -66q137 0 215 101.5t78 283.5q0 133 -43 225z" />
<glyph unicode="&#xf9;" d="M207 391v633h178v-627q0 -272 213 -272q145 0 205.5 110.5t60.5 253.5v535h174v-1024h-164v195q-32 -84 -118 -152t-193 -68q-166 0 -262 91q-49 47 -71.5 124.5t-22.5 200.5zM308 1475h217l176 -293h-154z" />
<glyph unicode="&#xfa;" d="M207 391v633h178v-627q0 -272 213 -272q145 0 205.5 110.5t60.5 253.5v535h174v-1024h-164v195q-32 -84 -118 -152t-193 -68q-166 0 -262 91q-49 47 -71.5 124.5t-22.5 200.5zM547 1182l176 293h217l-240 -293h-153z" />
<glyph unicode="&#xfb;" d="M207 391v633h178v-627q0 -272 213 -272q145 0 205.5 110.5t60.5 253.5v535h174v-1024h-164v195q-32 -84 -118 -152t-193 -68q-166 0 -262 91q-49 47 -71.5 124.5t-22.5 200.5zM318 1182l211 293h192l211 -293h-172l-135 190l-135 -190h-172z" />
<glyph unicode="&#xfc;" d="M207 391v633h178v-627q0 -272 213 -272q145 0 205.5 110.5t60.5 253.5v535h174v-1024h-164v195q-32 -84 -118 -152t-193 -68q-166 0 -262 91q-49 47 -71.5 124.5t-22.5 200.5zM297 1229v246h244v-246h-244zM709 1229v246h244v-246h-244z" />
<glyph unicode="&#xfd;" d="M166 1024h196l289 -821l285 821h186l-409 -1090q-68 -188 -161 -267t-228 -79q-51 0 -95 9v153q53 -4 74 -4q92 0 146.5 44t89.5 147l26 75zM558 1182l176 293h217l-240 -293h-153z" />
<glyph unicode="&#xfe;" d="M229 -399v1884h174v-641q106 205 324 205q127 0 220 -72t143.5 -193.5t50.5 -271.5t-50.5 -271.5t-143.5 -193.5t-220 -72q-217 0 -324 185v-559h-174zM399 485q0 -166 74 -261t207 -95q127 0 201.5 109.5t74.5 273.5t-74.5 273.5t-201.5 109.5q-133 0 -207 -94t-74 -258 v-58z" />
<glyph unicode="&#xff;" d="M166 1024h196l289 -821l285 821h186l-409 -1090q-68 -188 -161 -267t-228 -79q-51 0 -95 9v153q53 -4 74 -4q92 0 146.5 44t89.5 147l26 75zM307 1229v246h244v-246h-244zM719 1229v246h244v-246h-244z" />
<glyph unicode="&#x152;" d="M78 524v410q0 256 121 389q117 131 333 131h621v-164h-414v-465h379v-159h-379v-502h428v-164h-630q-215 0 -338 141q-121 143 -121 383zM264 524q0 -178 66 -272q66 -92 186 -92h43v1134h-47q-125 0 -186 -90q-61 -88 -62 -270v-410z" />
<glyph unicode="&#x153;" d="M61 344v307q0 393 328 393q158 0 240 -100q88 100 243 100q154 0 243 -99t89 -286v-170h-495v-149q0 -106 44 -161.5t119 -55.5q76 0 122 57.5t46 153.5v33l168 -33v-27q0 -152 -95 -242t-243 -90q-152 0 -243 103q-86 -102 -238 -103q-150 0 -239 95.5t-89 273.5z M236 350q0 -121 39.5 -173t113.5 -52q76 0 114 51t38 172v332q0 115 -38 165t-114 50t-114.5 -50t-38.5 -171v-324zM709 606h321v72q0 223 -160 223q-161 0 -161 -225v-70z" />
<glyph unicode="&#x178;" d="M68 1454h211l356 -717l356 717h211l-471 -874v-580h-190v580zM291 1583v227h223v-227h-223zM756 1583v227h223v-227h-223z" />
<glyph unicode="&#x2c6;" d="M328 1182l211 293h192l211 -293h-172l-135 190l-135 -190h-172z" />
<glyph unicode="&#x2dc;" d="M258 1253q23 119 89.5 175.5t144.5 56.5q57 0 95 -18.5t89 -57.5q37 -29 61.5 -42t53.5 -13q33 0 60.5 28.5t39.5 85.5l121 -20q-31 -125 -93.5 -181.5t-142.5 -56.5q-51 0 -85.5 18.5t-77.5 53.5q-35 29 -63 44t-62 15q-41 0 -69 -30.5t-38 -79.5z" />
<glyph unicode="&#x2000;" horiz-adv-x="938" />
<glyph unicode="&#x2001;" horiz-adv-x="1876" />
<glyph unicode="&#x2002;" horiz-adv-x="938" />
<glyph unicode="&#x2003;" horiz-adv-x="1876" />
<glyph unicode="&#x2004;" horiz-adv-x="625" />
<glyph unicode="&#x2005;" horiz-adv-x="469" />
<glyph unicode="&#x2006;" horiz-adv-x="312" />
<glyph unicode="&#x2007;" horiz-adv-x="312" />
<glyph unicode="&#x2008;" horiz-adv-x="234" />
<glyph unicode="&#x2009;" horiz-adv-x="375" />
<glyph unicode="&#x200a;" horiz-adv-x="104" />
<glyph unicode="&#x2010;" d="M338 487v164h592v-164h-592z" />
<glyph unicode="&#x2011;" d="M338 487v164h592v-164h-592z" />
<glyph unicode="&#x2012;" d="M338 487v164h592v-164h-592z" />
<glyph unicode="&#x2013;" d="M213 504v131h844v-131h-844z" />
<glyph unicode="&#x2014;" d="M86 504v131h1096v-131h-1096z" />
<glyph unicode="&#x2018;" d="M498 930v262q0 121 45 188.5t162 114.5l53 -94q-84 -37 -110.5 -79t-26.5 -130h149v-262h-272z" />
<glyph unicode="&#x2019;" d="M498 1192v262h272v-262q0 -121 -45 -188.5t-162 -114.5l-53 94q84 37 110.5 79t26.5 130h-149z" />
<glyph unicode="&#x201a;" d="M498 0v262h272v-262q0 -121 -45 -188.5t-162 -114.5l-53 94q84 37 110.5 79t26.5 130h-149z" />
<glyph unicode="&#x201c;" d="M299 932v262q0 121 45 188.5t162 114.5l53 -94q-84 -37 -110.5 -79t-26.5 -130h149v-262h-272zM696 932v262q0 121 45 188.5t162 114.5l53 -94q-84 -37 -110.5 -79t-26.5 -130h150v-262h-273z" />
<glyph unicode="&#x201d;" d="M301 1192v262h272v-262q0 -121 -45 -188.5t-161 -114.5l-54 94q84 37 111 79t27 130h-150zM698 1192v262h273v-262q0 -121 -45 -188.5t-162 -114.5l-53 94q84 37 110.5 79t26.5 130h-150z" />
<glyph unicode="&#x201e;" d="M301 -2v262h272v-262q0 -121 -45 -188.5t-161 -114.5l-54 94q84 37 111 79t27 130h-150zM698 -2v262h273v-262q0 -121 -45 -188.5t-162 -114.5l-53 94q84 37 110.5 79t26.5 130h-150z" />
<glyph unicode="&#x2022;" d="M440 707q0 86 54.5 140t138.5 54q86 0 140 -53t54 -141q0 -84 -54 -136.5t-140 -52.5q-84 0 -138.5 52.5t-54.5 136.5z" />
<glyph unicode="&#x2026;" d="M74 0v256h272v-256h-272zM498 0v256h272v-256h-272zM922 0v256h272v-256h-272z" />
<glyph unicode="&#x202f;" horiz-adv-x="375" />
<glyph unicode="&#x2039;" d="M344 563l354 424h185l-342 -422l336 -428h-189z" />
<glyph unicode="&#x203a;" d="M387 987h184l355 -424l-344 -426h-189l336 428z" />
<glyph unicode="&#x205f;" horiz-adv-x="469" />
<glyph unicode="&#x20ac;" d="M20 528v123h173q-2 25 -3 76q0 53 3 78h-173v123h187q41 256 190.5 391t380.5 135q166 0 277.5 -73.5t175.5 -233.5l-160 -62q-43 94 -114.5 150.5t-190.5 56.5q-143 0 -239.5 -90t-129.5 -274h555v-123h-569q-2 -25 -2 -76q0 -53 2 -78h569v-123h-555 q33 -199 133.5 -298t245.5 -99q106 0 189.5 53.5t136.5 155.5l147 -64q-143 -307 -479 -307q-233 0 -378.5 147.5t-186.5 411.5h-185z" />
<glyph unicode="&#x2122;" d="M68 1339v115h452v-115h-164v-675h-135v675h-153zM600 664v790h197l80 -518q18 -102 20 -158h6q2 55 21 158l80 518h196v-790h-119v555v124h-2q-2 -31 -12 -86l-102 -593h-129l-103 593q-10 53 -12 86h-2v-124v-555h-119z" />
<glyph unicode="&#x25fc;" horiz-adv-x="1024" d="M0 0v1024h1024v-1024h-1024z" />
</font>
</defs>
</svg>
